<?xml version="1.0" encoding="utf-8"?>
<!-- Generator: Adobe Illustrator 27.0.1, SVG Export Plug-In . SVG Version: 6.00 Build 0)  -->
<svg version="1.1" id="Layer_1" xmlns="http://www.w3.org/2000/svg" xmlns:xlink="http://www.w3.org/1999/xlink" x="0px" y="0px"
	 viewBox="0 0 1107 1007" style="enable-background:new 0 0 1107 1007;" xml:space="preserve">
<style type="text/css">
	.st0{fill-rule:evenodd;clip-rule:evenodd;fill:#FFFFFF;}
	.st1{fill-rule:evenodd;clip-rule:evenodd;fill:#171717;}
</style>
<g id="Logo-tall-white">
	<g id="Group-2">
		<rect id="Rectangle" class="st0" width="1107" height="1006.5"/>
		<path id="Fill-4" class="st1" d="M194,288.4c-39.5,0-71.6-32.8-71.6-73.1l-25.4,0c0,54.6,43.5,99,97,99c53.5,0,97-44.3,97-98.9
			l-25.4,0C265.6,255.6,233.5,288.4,194,288.4"/>
		<polygon id="Fill-6" class="st1" points="206,402.2 182,402.2 182,305.2 206,305.2 		"/>
		<g id="Logo" transform="translate(97.000000, 93.000000)">
			<g id="Group" transform="translate(0.862500, 0.518182)">
				<path id="Y" class="st1" d="M109.1,220.3l0,89.4l-24.6,0l0-89.4C36.9,214.1,0,172.7,0,122.7l25.3,0c0,40.1,32.1,72.6,71.5,72.7
					c39.4,0,71.6-32.5,71.6-72.6l25.3,0C193.7,172.8,156.7,214.2,109.1,220.3z"/>
				<path id="O" class="st1" d="M308.3,143.6c-39.5,0-71.6,32.1-71.6,71.6c0,39.5,32.1,71.6,71.5,71.7c39.4,0,71.6-32.1,71.6-71.6
					C379.8,175.8,347.7,143.6,308.3,143.6 M308.2,312.2c-53.4,0-96.8-43.6-96.8-97c0-53.5,43.5-97,96.9-96.9
					c53.4,0,96.9,43.6,96.8,97C405.1,268.7,361.6,312.2,308.2,312.2"/>
			</g>
		</g>
		<g id="Logo_00000015316894148628784310000012558707853954430352_" transform="translate(588.000000, 480.000000)">
			<g id="Group_00000152223958128634129210000016261953507466259368_" transform="translate(0.093750, 0.518182)">
				<path id="G" class="st1" d="M168.1,208.3C168.1,208.3,168.1,208.3,168.1,208.3l25.4,0c0.1,1.4,0.3,5.4,0.3,6.9
					c0,53.5-43.4,97-96.8,97C43.5,312.2,0,268.7,0,215.3c0-53.5,43.4-97,96.8-97c39.3,0,73.1,23.5,88.3,57.2l-28.8,0
					c-12.9-19.2-34.7-31.8-59.5-31.8c-39.4,0-71.5,32.1-71.5,71.6c0,39.5,32.1,71.6,71.6,71.6c33.2,0,61.2-22.8,69.2-53.5l-63.3,0
					l0-25L168.1,208.3z"/>
				<path id="O_00000041275140322888021740000001322474726311092126_" class="st1" d="M325.2,143.6c-39.4,0-71.5,32.2-71.5,71.7
					c0,39.5,32.1,71.6,71.6,71.6s71.5-32.2,71.5-71.6C396.7,175.7,364.6,143.6,325.2,143.6 M325.2,312.2
					c-53.4,0-96.9-43.5-96.9-96.9c0-53.5,43.4-97,96.8-97c53.4,0,96.9,43.5,96.9,96.9C422.1,268.7,378.6,312.2,325.2,312.2"/>
				<polygon id="Fill-4_00000075134483799657539910000015491926977471147169_" class="st1" points="102.8,233.3 102.8,208.3 
					188.1,208.3 186.6,233.3 				"/>
			</g>
		</g>
	</g>
</g>
</svg>
